<svg width="24" height="22" viewBox="0 0 24 22" fill="none" xmlns="http://www.w3.org/2000/svg">
<g id="new">
<path id="Vector" d="M10.5609 20.958C10.9507 19.9619 13.9582 12.7775 20.0695 11.4013C20.081 11.4013 20.092 11.3967 20.1001 11.3886C20.1082 11.3805 20.1128 11.3695 20.1128 11.358C20.1128 11.3465 20.1082 11.3355 20.1001 11.3273C20.092 11.3192 20.081 11.3147 20.0695 11.3147C19.0397 10.9008 12.7456 8.15316 10.7438 1.56549C10.7438 1.55401 10.7392 1.54299 10.7311 1.53487C10.723 1.52675 10.7119 1.52219 10.7005 1.52219C10.689 1.52219 10.678 1.52675 10.6698 1.53487C10.6617 1.54299 10.6571 1.55401 10.6571 1.56549C10.4117 2.65782 8.76121 8.50925 1.03309 11.1895C1.02347 11.1927 1.01509 11.1988 1.00914 11.207C1.0032 11.2153 1 11.2251 1 11.2353C1 11.2454 1.0032 11.2553 1.00914 11.2635C1.01509 11.2717 1.02347 11.2778 1.03309 11.281C2.11099 11.4638 7.51971 12.792 10.4743 20.9772C10.4798 20.9849 10.4874 20.9909 10.4962 20.9943C10.5051 20.9977 10.5147 20.9984 10.524 20.9964C10.5332 20.9943 10.5417 20.9896 10.5482 20.9827C10.5548 20.9759 10.5592 20.9673 10.5609 20.958Z" stroke="#0085FF" stroke-width="2"/>
<path id="Vector_2" d="M19.6028 7.92701C19.7423 7.57092 20.8154 5.00611 23.0001 4.51528V4.4816C22.6344 4.33724 20.3871 3.35558 19.6702 1.0025H19.6365C19.5499 1.39709 18.9628 3.48551 16.2007 4.43348V4.46716C16.5856 4.53453 18.5153 5.00611 19.5691 7.93182L19.6028 7.92701Z" stroke="#0085FF" stroke-width="2"/>
</g>
</svg>
