<svg width="24" height="24" viewBox="0 0 24 24" fill="none" xmlns="http://www.w3.org/2000/svg">
<path id="Vector" d="M23.2243 8.61241L16.0296 7.56723L12.8133 1.04966C12.7255 0.871218 12.581 0.726761 12.4024 0.638954C11.9547 0.41802 11.4106 0.602132 11.1868 1.04966L7.97055 7.56723L0.77582 8.61241C0.577461 8.64074 0.396105 8.73421 0.257255 8.87584C0.0893918 9.0483 -0.0031083 9.28032 7.97568e-05 9.52091C0.00326781 9.76151 0.101883 9.991 0.274257 10.159L5.47974 15.2319L4.24992 22.3953C4.22108 22.5619 4.23953 22.7333 4.30317 22.89C4.36681 23.0467 4.47311 23.1824 4.60999 23.2818C4.74688 23.3812 4.90889 23.4402 5.07764 23.4523C5.24639 23.4643 5.41514 23.4288 5.56475 23.3499L12.0001 19.9679L18.4354 23.3499C18.6111 23.4433 18.8151 23.4745 19.0106 23.4405C19.5037 23.3555 19.8352 22.8882 19.7502 22.3953L18.5204 15.2319L23.7259 10.159C23.8675 10.0202 23.9611 9.83888 23.9894 9.64061C24.0659 9.14492 23.7202 8.68606 23.2243 8.61241Z" fill="#F5BE0B"/>
</svg>
